<?xml version="1.0" standalone="no"?>
<!DOCTYPE svg PUBLIC "-//W3C//DTD SVG 20010904//EN"
 "http://www.w3.org/TR/2001/REC-SVG-20010904/DTD/svg10.dtd">
<svg version="1.0" xmlns="http://www.w3.org/2000/svg"
 width="545.000000pt" height="545.000000pt" viewBox="0 0 545.000000 545.000000"
 preserveAspectRatio="xMidYMid meet">
<metadata>
Created by potrace 1.14, written by Peter Selinger 2001-2017
</metadata>
<g transform="translate(0.000000,545.000000) scale(0.100000,-0.100000)"
fill="#000000" stroke="none">
<path d="M1130 3765 c-586 -586 -1067 -1070 -1068 -1075 -2 -6 478 -492 1067
-1081 l1071 -1072 266 267 c147 146 269 266 273 266 3 0 125 -120 270 -266
l264 -265 39 38 c36 35 2099 2099 2107 2108 4 5 -2134 2145 -2144 2145 -4 0
-127 -119 -273 -265 l-266 -266 -263 263 c-144 145 -266 264 -271 266 -4 1
-487 -477 -1072 -1063z m1576 -2622 c-10 -10 -19 5 -10 18 6 11 8 11 12 0 2
-7 1 -15 -2 -18z"/>
</g>
</svg>
